<svg xmlns="http://www.w3.org/2000/svg" xmlns:xlink="http://www.w3.org/1999/xlink" width="422" zoomAndPan="magnify" viewBox="0 0 316.5 316.499999" height="422" preserveAspectRatio="xMidYMid meet" version="1.0"><defs><clipPath id="b295699f70"><path d="M 37.839844 37.5 L 278.660156 37.5 L 278.660156 278.324219 L 37.839844 278.324219 Z M 37.839844 37.5 " clip-rule="nonzero"/></clipPath><clipPath id="d6f5c840cb"><path d="M 158.25 37.5 C 91.75 37.5 37.839844 91.410156 37.839844 157.910156 C 37.839844 224.414062 91.75 278.324219 158.25 278.324219 C 224.75 278.324219 278.660156 224.414062 278.660156 157.910156 C 278.660156 91.410156 224.75 37.5 158.25 37.5 " clip-rule="nonzero"/></clipPath><clipPath id="f85c177d31"><path d="M 55.425781 102.167969 L 260.925781 102.167969 L 260.925781 183 L 55.425781 183 Z M 55.425781 102.167969 " clip-rule="nonzero"/></clipPath><clipPath id="9c9c1d5d5b"><path d="M 55.425781 137 L 260.925781 137 L 260.925781 189.917969 L 55.425781 189.917969 Z M 55.425781 137 " clip-rule="nonzero"/></clipPath></defs><g clip-path="url(#b295699f70)"><g clip-path="url(#d6f5c840cb)"><path fill="#47406b" d="M 37.839844 37.5 L 278.660156 37.5 L 278.660156 278.324219 L 37.839844 278.324219 Z M 37.839844 37.5 " fill-opacity="1" fill-rule="nonzero"/></g></g><g clip-path="url(#f85c177d31)"><path fill="#2196f3" d="M 118.949219 138.566406 C 112.53125 140.648438 106.292969 143.21875 100.320312 146.222656 L 97.402344 139.46875 L 92.65625 150.386719 C 90.90625 151.40625 89.179688 152.464844 87.488281 153.566406 C 83.367188 156.226562 79.390625 159.078125 75.597656 162.144531 C 71.808594 165.207031 68.191406 168.46875 64.792969 171.925781 C 63.089844 173.644531 61.453125 175.4375 59.875 177.261719 C 58.3125 179.109375 56.78125 180.976562 55.425781 182.980469 L 92.375 102.5625 L 102.390625 102.5625 Z M 172.035156 102.363281 C 156.9375 102.363281 143.867188 112.167969 143.867188 125.921875 C 143.867188 128.527344 144.277344 130.878906 145.015625 133.003906 C 145.601562 132.941406 146.1875 132.871094 146.773438 132.832031 L 150.535156 132.53125 L 154.308594 132.371094 C 154.933594 132.335938 155.5625 132.335938 156.195312 132.332031 L 158.082031 132.316406 C 159.34375 132.292969 160.597656 132.34375 161.859375 132.382812 L 163.746094 132.441406 C 164.375 132.460938 165 132.515625 165.628906 132.546875 L 167.511719 132.679688 C 168.136719 132.730469 168.765625 132.757812 169.394531 132.832031 L 173.148438 133.230469 C 173.929688 133.332031 174.707031 133.4375 175.488281 133.550781 C 168.941406 130.988281 164.835938 129.667969 164.835938 126.558594 C 164.835938 123.851562 167.945312 121.632812 172.285156 121.632812 C 176.082031 121.632812 182.203125 123.457031 184.566406 127.644531 L 196.757812 115.917969 C 193.640625 108.082031 184.167969 102.363281 172.035156 102.363281 Z M 209.378906 103.542969 L 209.378906 143.390625 L 212.523438 144.835938 C 213.640625 145.367188 214.742188 145.945312 215.839844 146.5 L 217.488281 147.335938 C 218.039062 147.617188 218.570312 147.929688 219.109375 148.230469 L 222.335938 150.03125 C 223.398438 150.648438 224.441406 151.3125 225.492188 151.945312 C 226.535156 152.589844 227.589844 153.222656 228.601562 153.914062 C 229.234375 154.335938 229.859375 154.757812 230.488281 155.179688 L 230.488281 103.542969 Z M 241.164062 163.171875 C 244.679688 166.035156 248.011719 169.105469 251.226562 172.257812 C 252.949219 173.949219 254.585938 175.730469 256.234375 177.476562 C 257.835938 179.285156 259.40625 181.109375 260.921875 182.980469 L 260.921875 163.171875 Z M 241.164062 163.171875 " fill-opacity="1" fill-rule="nonzero"/></g><g clip-path="url(#9c9c1d5d5b)"><path fill="#ffffff" d="M 209.378906 188.652344 L 209.378906 163.570312 L 207.449219 162.890625 L 204.214844 161.847656 C 203.675781 161.679688 203.140625 161.484375 202.597656 161.324219 L 200.96875 160.851562 C 200.375 160.679688 199.789062 160.507812 199.195312 160.332031 C 199.53125 161.867188 199.710938 163.488281 199.710938 165.195312 C 199.710938 180.320312 185.605469 189.734375 169.671875 189.734375 C 156.601562 189.734375 144.710938 183.972656 140.714844 175.195312 L 153.492188 162.679688 C 156.792969 167.554688 162.964844 170.515625 169.621094 170.515625 C 174.105469 170.515625 178.503906 168.886719 178.503906 165.632812 C 178.503906 161.546875 170.363281 157.945312 162.570312 154.496094 C 162.550781 154.492188 162.535156 154.480469 162.519531 154.472656 L 162.511719 154.472656 L 161.402344 154.445312 L 159.742188 154.402344 C 159.1875 154.378906 158.632812 154.414062 158.078125 154.40625 C 147.109375 154.386719 136.144531 155.660156 125.3125 158.058594 L 139.382812 188.640625 L 116.25 188.640625 L 112.25 179.378906 L 82.558594 179.378906 L 78.507812 188.640625 L 55.425781 188.640625 C 56.777344 186.640625 58.3125 184.765625 59.875 182.921875 C 61.453125 181.09375 63.089844 179.308594 64.792969 177.585938 C 68.191406 174.132812 71.808594 170.871094 75.597656 167.808594 C 79.386719 164.742188 83.367188 161.890625 87.488281 159.226562 C 89.179688 158.128906 90.90625 157.070312 92.65625 156.050781 C 95.15625 154.589844 97.703125 153.203125 100.300781 151.902344 C 100.308594 151.894531 100.320312 151.894531 100.324219 151.890625 C 106.300781 148.890625 112.53125 146.316406 118.953125 144.234375 C 122.007812 143.242188 125.105469 142.367188 128.238281 141.601562 C 133.097656 140.40625 138.039062 139.515625 143.03125 138.898438 L 144.902344 138.683594 C 144.945312 138.675781 144.984375 138.671875 145.023438 138.671875 C 145.605469 138.609375 146.195312 138.539062 146.777344 138.5 L 150.542969 138.199219 L 154.3125 138.039062 C 154.941406 138.007812 155.566406 138.007812 156.199219 138 L 158.089844 137.984375 C 159.347656 137.960938 160.601562 138.011719 161.863281 138.050781 L 163.75 138.113281 C 164.378906 138.128906 165.007812 138.183594 165.632812 138.21875 L 167.515625 138.351562 C 168.144531 138.398438 168.769531 138.429688 169.398438 138.5 L 173.152344 138.898438 C 173.933594 139 174.710938 139.105469 175.496094 139.222656 L 175.5 139.222656 C 179.699219 139.832031 183.851562 140.636719 187.960938 141.640625 C 190.375 142.292969 192.808594 142.898438 195.179688 143.6875 L 196.96875 144.246094 L 197.855469 144.527344 L 198.738281 144.84375 L 202.253906 146.109375 C 202.839844 146.316406 203.414062 146.558594 203.992188 146.785156 L 205.71875 147.492188 L 207.445312 148.195312 C 208.015625 148.429688 208.578125 148.695312 209.144531 148.949219 L 209.371094 149.054688 L 212.519531 150.496094 C 213.636719 151.03125 214.734375 151.605469 215.835938 152.160156 L 217.484375 153 C 218.035156 153.28125 218.566406 153.59375 219.105469 153.890625 L 222.332031 155.695312 C 223.390625 156.308594 224.433594 156.976562 225.484375 157.609375 C 226.527344 158.25 227.582031 158.882812 228.59375 159.578125 C 229.226562 160 229.855469 160.421875 230.480469 160.84375 C 231.886719 161.785156 233.269531 162.746094 234.617188 163.757812 C 235.601562 164.488281 236.585938 165.203125 237.554688 165.941406 L 240.40625 168.21875 C 240.65625 168.425781 240.90625 168.625 241.160156 168.835938 C 244.675781 171.695312 248.007812 174.769531 251.222656 177.921875 C 252.941406 179.613281 254.582031 181.394531 256.230469 183.140625 C 257.828125 184.949219 259.398438 186.773438 260.914062 188.640625 L 209.378906 188.640625 Z M 209.378906 188.652344 " fill-opacity="1" fill-rule="nonzero"/></g></svg>